<mxfile host="drawio-plugin" modified="2023-01-07T00:30:13.451Z" agent="5.0 (Windows NT 6.2; Win64; x64) AppleWebKit/537.36 (KHTML, like Gecko) Chrome/98.0.4758.102 Safari/537.36" etag="2tQQV52CZ1QUid5kil5g" version="20.5.3" type="embed"><diagram id="23iRSUPoRavnBvh4doch" name="Page-1"><mxGraphModel dx="3175" dy="2858" grid="1" gridSize="10" guides="1" tooltips="1" connect="1" arrows="1" fold="1" page="1" pageScale="1" pageWidth="827" pageHeight="1169" math="0" shadow="0"><root><mxCell id="0"/><mxCell id="1" parent="0"/><mxCell id="2" value="1" style="edgeStyle=orthogonalEdgeStyle;rounded=0;orthogonalLoop=1;jettySize=auto;html=1;entryX=0;entryY=0.5;entryDx=0;entryDy=0;align=left;" parent="1" source="7" target="10" edge="1"><mxGeometry x="-0.8261" relative="1" as="geometry"><mxPoint x="300" y="90" as="targetPoint"/><Array as="points"><mxPoint x="-410" y="-70"/><mxPoint x="-410" y="-70"/></Array><mxPoint as="offset"/></mxGeometry></mxCell><mxCell id="3" style="edgeStyle=orthogonalEdgeStyle;rounded=0;orthogonalLoop=1;jettySize=auto;html=1;" parent="1" source="7" target="106" edge="1"><mxGeometry relative="1" as="geometry"><Array as="points"><mxPoint x="-540" y="-135"/><mxPoint x="-430" y="-135"/></Array></mxGeometry></mxCell><mxCell id="4" value="1" style="edgeStyle=orthogonalEdgeStyle;rounded=0;orthogonalLoop=1;jettySize=auto;html=1;entryX=0.5;entryY=1;entryDx=0;entryDy=0;" parent="1" source="7" target="120" edge="1"><mxGeometry x="-0.8182" relative="1" as="geometry"><Array as="points"><mxPoint x="-540" y="-230"/></Array><mxPoint as="offset"/></mxGeometry></mxCell><mxCell id="5" value="N" style="edgeStyle=orthogonalEdgeStyle;rounded=0;orthogonalLoop=1;jettySize=auto;html=1;align=left;sketch=0;" parent="1" source="7" target="142" edge="1"><mxGeometry x="1" y="-267" relative="1" as="geometry"><Array as="points"><mxPoint x="-970" y="-70"/><mxPoint x="-970" y="-70"/></Array><mxPoint x="-59" y="7" as="offset"/></mxGeometry></mxCell><mxCell id="6" style="edgeStyle=orthogonalEdgeStyle;rounded=0;orthogonalLoop=1;jettySize=auto;html=1;entryX=0.5;entryY=1;entryDx=0;entryDy=0;" parent="1" source="7" target="144" edge="1"><mxGeometry relative="1" as="geometry"><Array as="points"><mxPoint x="-540" y="-135"/><mxPoint x="-640" y="-135"/></Array></mxGeometry></mxCell><mxCell id="7" value="quinta" style="rounded=0;whiteSpace=wrap;html=1;fillColor=#ffe6cc;strokeColor=#d79b00;" parent="1" vertex="1"><mxGeometry x="-590" y="-100" width="120" height="60" as="geometry"/></mxCell><mxCell id="8" style="edgeStyle=orthogonalEdgeStyle;rounded=0;orthogonalLoop=1;jettySize=auto;html=1;entryX=0.5;entryY=0;entryDx=0;entryDy=0;" parent="1" source="10" target="17" edge="1"><mxGeometry relative="1" as="geometry"><mxPoint x="500" y="260" as="targetPoint"/></mxGeometry></mxCell><mxCell id="10" value="composta" style="rhombus;whiteSpace=wrap;html=1;fillColor=#fff2cc;strokeColor=#d6b656;" parent="1" vertex="1"><mxGeometry x="-240" y="-110" width="120" height="80" as="geometry"/></mxCell><mxCell id="12" style="edgeStyle=orthogonalEdgeStyle;rounded=0;orthogonalLoop=1;jettySize=auto;html=1;" parent="1" source="17" target="29" edge="1"><mxGeometry relative="1" as="geometry"/></mxCell><mxCell id="13" style="edgeStyle=orthogonalEdgeStyle;rounded=0;orthogonalLoop=1;jettySize=auto;html=1;entryX=0;entryY=0.5;entryDx=0;entryDy=0;" parent="1" source="17" target="28" edge="1"><mxGeometry relative="1" as="geometry"/></mxCell><mxCell id="14" value="N" style="edgeStyle=orthogonalEdgeStyle;rounded=0;orthogonalLoop=1;jettySize=auto;html=1;entryX=1;entryY=0.5;entryDx=0;entryDy=0;" parent="1" source="17" target="37" edge="1"><mxGeometry x="-0.8824" relative="1" as="geometry"><mxPoint x="-1" as="offset"/></mxGeometry></mxCell><mxCell id="16" value="N" style="edgeStyle=orthogonalEdgeStyle;rounded=0;orthogonalLoop=1;jettySize=auto;html=1;entryX=0.5;entryY=0;entryDx=0;entryDy=0;" parent="1" source="17" target="96" edge="1"><mxGeometry x="-0.9167" relative="1" as="geometry"><Array as="points"><mxPoint x="530" y="230"/><mxPoint x="530" y="900"/></Array><mxPoint as="offset"/></mxGeometry></mxCell><mxCell id="306" style="edgeStyle=orthogonalEdgeStyle;rounded=0;orthogonalLoop=1;jettySize=auto;html=1;" parent="1" source="17" target="305" edge="1"><mxGeometry relative="1" as="geometry"/></mxCell><mxCell id="326" style="edgeStyle=orthogonalEdgeStyle;rounded=0;orthogonalLoop=1;jettySize=auto;html=1;entryX=0.5;entryY=1;entryDx=0;entryDy=0;" parent="1" source="17" target="322" edge="1"><mxGeometry relative="1" as="geometry"/></mxCell><mxCell id="17" value="parcelas" style="whiteSpace=wrap;html=1;fillColor=#ffe6cc;strokeColor=#d79b00;" parent="1" vertex="1"><mxGeometry x="310" y="200" width="120" height="60" as="geometry"/></mxCell><mxCell id="28" value="area" style="ellipse;whiteSpace=wrap;html=1;fillColor=#f8cecc;strokeColor=#b85450;" parent="1" vertex="1"><mxGeometry x="490" y="90" width="120" height="80" as="geometry"/></mxCell><mxCell id="29" value="id_parcela" style="ellipse;whiteSpace=wrap;html=1;fillColor=#f8cecc;strokeColor=#b85450;" parent="1" vertex="1"><mxGeometry x="570" y="190" width="120" height="80" as="geometry"/></mxCell><mxCell id="30" style="edgeStyle=orthogonalEdgeStyle;rounded=0;orthogonalLoop=1;jettySize=auto;html=1;entryX=0.5;entryY=1;entryDx=0;entryDy=0;" parent="1" source="35" target="38" edge="1"><mxGeometry relative="1" as="geometry"/></mxCell><mxCell id="31" style="edgeStyle=orthogonalEdgeStyle;rounded=0;orthogonalLoop=1;jettySize=auto;html=1;entryX=0.5;entryY=0;entryDx=0;entryDy=0;" parent="1" source="35" target="143" edge="1"><mxGeometry relative="1" as="geometry"/></mxCell><mxCell id="32" style="edgeStyle=orthogonalEdgeStyle;rounded=0;orthogonalLoop=1;jettySize=auto;html=1;entryX=0.5;entryY=0;entryDx=0;entryDy=0;" parent="1" source="35" target="136" edge="1"><mxGeometry relative="1" as="geometry"/></mxCell><mxCell id="33" style="edgeStyle=orthogonalEdgeStyle;rounded=0;orthogonalLoop=1;jettySize=auto;html=1;entryX=0.5;entryY=1;entryDx=0;entryDy=0;" parent="1" source="35" target="135" edge="1"><mxGeometry relative="1" as="geometry"/></mxCell><mxCell id="34" value="N" style="edgeStyle=orthogonalEdgeStyle;rounded=0;orthogonalLoop=1;jettySize=auto;html=1;exitX=0;exitY=0.5;exitDx=0;exitDy=0;" parent="1" source="35" target="182" edge="1"><mxGeometry x="-0.9048" relative="1" as="geometry"><mxPoint x="-1" as="offset"/></mxGeometry></mxCell><mxCell id="35" value="cultura" style="whiteSpace=wrap;html=1;fillColor=#ffe6cc;strokeColor=#d79b00;" parent="1" vertex="1"><mxGeometry x="-1210" y="200" width="120" height="60" as="geometry"/></mxCell><mxCell id="36" value="N" style="edgeStyle=orthogonalEdgeStyle;rounded=0;orthogonalLoop=1;jettySize=auto;html=1;" parent="1" source="37" target="35" edge="1"><mxGeometry x="0.9241" relative="1" as="geometry"><mxPoint as="offset"/></mxGeometry></mxCell><mxCell id="37" value="contém" style="rhombus;whiteSpace=wrap;html=1;fillColor=#fff2cc;strokeColor=#d6b656;" parent="1" vertex="1"><mxGeometry x="-300" y="190" width="120" height="80" as="geometry"/></mxCell><mxCell id="38" value="tipo" style="ellipse;whiteSpace=wrap;html=1;fillColor=#f8cecc;strokeColor=#b85450;" parent="1" vertex="1"><mxGeometry x="-1280" y="80" width="120" height="80" as="geometry"/></mxCell><mxCell id="331" value="N" style="edgeStyle=orthogonalEdgeStyle;rounded=0;orthogonalLoop=1;jettySize=auto;html=1;" parent="1" source="41" target="330" edge="1"><mxGeometry relative="1" as="geometry"/></mxCell><mxCell id="41" value="pode ser" style="rhombus;whiteSpace=wrap;html=1;fillColor=#fff2cc;strokeColor=#d6b656;" parent="1" vertex="1"><mxGeometry x="330" y="610" width="120" height="80" as="geometry"/></mxCell><mxCell id="42" style="edgeStyle=orthogonalEdgeStyle;rounded=0;orthogonalLoop=1;jettySize=auto;html=1;entryX=0.5;entryY=1;entryDx=0;entryDy=0;" parent="1" source="48" target="109" edge="1"><mxGeometry relative="1" as="geometry"/></mxCell><mxCell id="43" style="edgeStyle=orthogonalEdgeStyle;rounded=0;orthogonalLoop=1;jettySize=auto;html=1;entryX=0.5;entryY=1;entryDx=0;entryDy=0;" parent="1" source="48" target="49" edge="1"><mxGeometry relative="1" as="geometry"/></mxCell><mxCell id="44" style="edgeStyle=orthogonalEdgeStyle;rounded=0;orthogonalLoop=1;jettySize=auto;html=1;entryX=0.072;entryY=0.881;entryDx=0;entryDy=0;entryPerimeter=0;" parent="1" source="48" target="138" edge="1"><mxGeometry relative="1" as="geometry"/></mxCell><mxCell id="45" style="edgeStyle=orthogonalEdgeStyle;rounded=0;orthogonalLoop=1;jettySize=auto;html=1;entryX=0.5;entryY=0;entryDx=0;entryDy=0;" parent="1" source="48" target="52" edge="1"><mxGeometry relative="1" as="geometry"/></mxCell><mxCell id="46" style="edgeStyle=orthogonalEdgeStyle;rounded=0;orthogonalLoop=1;jettySize=auto;html=1;entryX=0;entryY=0.5;entryDx=0;entryDy=0;" parent="1" source="48" target="51" edge="1"><mxGeometry relative="1" as="geometry"><Array as="points"><mxPoint x="1070" y="520"/><mxPoint x="1070" y="600"/></Array></mxGeometry></mxCell><mxCell id="47" style="edgeStyle=orthogonalEdgeStyle;rounded=0;orthogonalLoop=1;jettySize=auto;html=1;entryX=0.5;entryY=0;entryDx=0;entryDy=0;" parent="1" source="48" target="50" edge="1"><mxGeometry relative="1" as="geometry"/></mxCell><mxCell id="271" value="1" style="edgeStyle=orthogonalEdgeStyle;rounded=0;orthogonalLoop=1;jettySize=auto;html=1;entryX=0;entryY=0.5;entryDx=0;entryDy=0;" parent="1" source="48" target="270" edge="1"><mxGeometry relative="1" as="geometry"/></mxCell><mxCell id="48" value="fatores_producao" style="whiteSpace=wrap;html=1;fillColor=#ffe6cc;strokeColor=#d79b00;" parent="1" vertex="1"><mxGeometry x="870" y="490" width="120" height="60" as="geometry"/></mxCell><mxCell id="49" value="classificacao" style="ellipse;whiteSpace=wrap;html=1;fillColor=#f8cecc;strokeColor=#b85450;" parent="1" vertex="1"><mxGeometry x="1010" y="370" width="120" height="80" as="geometry"/></mxCell><mxCell id="50" value="nome_comercial" style="ellipse;whiteSpace=wrap;html=1;fillColor=#f8cecc;strokeColor=#b85450;" parent="1" vertex="1"><mxGeometry x="1010" y="650" width="120" height="80" as="geometry"/></mxCell><mxCell id="51" value="formulacao" style="ellipse;whiteSpace=wrap;html=1;fillColor=#f8cecc;strokeColor=#b85450;" parent="1" vertex="1"><mxGeometry x="1150" y="560" width="120" height="80" as="geometry"/></mxCell><mxCell id="52" value="ficha técnica" style="ellipse;whiteSpace=wrap;html=1;fillColor=#f8cecc;strokeColor=#b85450;" parent="1" vertex="1"><mxGeometry x="870" y="670" width="120" height="80" as="geometry"/></mxCell><mxCell id="53" value="1" style="edgeStyle=orthogonalEdgeStyle;rounded=0;orthogonalLoop=1;jettySize=auto;html=1;" parent="1" source="57" target="60" edge="1"><mxGeometry relative="1" as="geometry"/></mxCell><mxCell id="54" value="1" style="edgeStyle=orthogonalEdgeStyle;rounded=0;orthogonalLoop=1;jettySize=auto;html=1;entryX=0.5;entryY=0;entryDx=0;entryDy=0;" parent="1" source="57" target="74" edge="1"><mxGeometry x="-0.7894" relative="1" as="geometry"><mxPoint as="offset"/></mxGeometry></mxCell><mxCell id="55" style="edgeStyle=orthogonalEdgeStyle;rounded=0;orthogonalLoop=1;jettySize=auto;html=1;entryX=1;entryY=0.5;entryDx=0;entryDy=0;" parent="1" source="57" target="140" edge="1"><mxGeometry relative="1" as="geometry"/></mxCell><mxCell id="56" style="edgeStyle=orthogonalEdgeStyle;rounded=0;orthogonalLoop=1;jettySize=auto;html=1;entryX=0;entryY=0.5;entryDx=0;entryDy=0;" parent="1" source="57" target="58" edge="1"><mxGeometry relative="1" as="geometry"/></mxCell><mxCell id="57" value="sistema_rega" style="whiteSpace=wrap;html=1;fillColor=#ffe6cc;strokeColor=#d79b00;" parent="1" vertex="1"><mxGeometry x="-410" y="490" width="120" height="60" as="geometry"/></mxCell><mxCell id="58" value="tipo_rega" style="ellipse;whiteSpace=wrap;html=1;fillColor=#f8cecc;strokeColor=#b85450;" parent="1" vertex="1"><mxGeometry x="-330" y="385" width="120" height="80" as="geometry"/></mxCell><mxCell id="59" value="1" style="edgeStyle=orthogonalEdgeStyle;rounded=0;orthogonalLoop=1;jettySize=auto;html=1;entryX=0.5;entryY=0;entryDx=0;entryDy=0;" parent="1" source="60" target="67" edge="1"><mxGeometry x="0.85" relative="1" as="geometry"><Array as="points"><mxPoint x="190" y="780"/></Array><mxPoint y="-1" as="offset"/></mxGeometry></mxCell><mxCell id="60" value="contém" style="rhombus;whiteSpace=wrap;html=1;fillColor=#fff2cc;strokeColor=#d6b656;" parent="1" vertex="1"><mxGeometry x="-250" y="740" width="120" height="80" as="geometry"/></mxCell><mxCell id="61" style="edgeStyle=orthogonalEdgeStyle;rounded=0;orthogonalLoop=1;jettySize=auto;html=1;" parent="1" source="67" target="70" edge="1"><mxGeometry relative="1" as="geometry"/></mxCell><mxCell id="62" style="edgeStyle=orthogonalEdgeStyle;rounded=0;orthogonalLoop=1;jettySize=auto;html=1;" parent="1" source="67" target="72" edge="1"><mxGeometry relative="1" as="geometry"/></mxCell><mxCell id="63" style="edgeStyle=orthogonalEdgeStyle;rounded=0;orthogonalLoop=1;jettySize=auto;html=1;entryX=0;entryY=0.5;entryDx=0;entryDy=0;" parent="1" source="67" target="71" edge="1"><mxGeometry relative="1" as="geometry"/></mxCell><mxCell id="64" style="edgeStyle=orthogonalEdgeStyle;rounded=0;orthogonalLoop=1;jettySize=auto;html=1;entryX=0.787;entryY=0.107;entryDx=0;entryDy=0;entryPerimeter=0;" parent="1" source="67" target="69" edge="1"><mxGeometry relative="1" as="geometry"/></mxCell><mxCell id="65" style="edgeStyle=orthogonalEdgeStyle;rounded=0;orthogonalLoop=1;jettySize=auto;html=1;entryX=0;entryY=0.5;entryDx=0;entryDy=0;" parent="1" source="67" target="157" edge="1"><mxGeometry relative="1" as="geometry"/></mxCell><mxCell id="66" style="edgeStyle=orthogonalEdgeStyle;rounded=0;orthogonalLoop=1;jettySize=auto;html=1;entryX=0;entryY=0.5;entryDx=0;entryDy=0;" parent="1" source="67" target="68" edge="1"><mxGeometry relative="1" as="geometry"/></mxCell><mxCell id="67" value="complexidade" style="whiteSpace=wrap;html=1;fillColor=#ffe6cc;strokeColor=#d79b00;" parent="1" vertex="1"><mxGeometry x="130" y="860" width="120" height="60" as="geometry"/></mxCell><mxCell id="68" value="dimensao_exploracao" style="ellipse;whiteSpace=wrap;html=1;fillColor=#f8cecc;strokeColor=#b85450;" parent="1" vertex="1"><mxGeometry x="330" y="940" width="120" height="80" as="geometry"/></mxCell><mxCell id="69" value="quantidade_agua" style="ellipse;whiteSpace=wrap;html=1;fillColor=#f8cecc;strokeColor=#b85450;" parent="1" vertex="1"><mxGeometry x="20" y="980" width="120" height="80" as="geometry"/></mxCell><mxCell id="70" value="qualidade_agua" style="ellipse;whiteSpace=wrap;html=1;fillColor=#f8cecc;strokeColor=#b85450;" parent="1" vertex="1"><mxGeometry x="160" y="980" width="120" height="80" as="geometry"/></mxCell><mxCell id="71" value="nCulturas" style="ellipse;whiteSpace=wrap;html=1;fillColor=#f8cecc;strokeColor=#b85450;" parent="1" vertex="1"><mxGeometry x="290" y="770" width="120" height="80" as="geometry"/></mxCell><mxCell id="72" value="varieda_FP" style="ellipse;whiteSpace=wrap;html=1;fillColor=#f8cecc;strokeColor=#b85450;" parent="1" vertex="1"><mxGeometry x="-30" y="850" width="120" height="80" as="geometry"/></mxCell><mxCell id="73" value="N" style="edgeStyle=orthogonalEdgeStyle;rounded=0;orthogonalLoop=1;jettySize=auto;html=1;" parent="1" source="74" target="80" edge="1"><mxGeometry x="0.6364" relative="1" as="geometry"><mxPoint x="1" as="offset"/></mxGeometry></mxCell><mxCell id="74" value="feita" style="rhombus;whiteSpace=wrap;html=1;fillColor=#fff2cc;strokeColor=#d6b656;" parent="1" vertex="1"><mxGeometry x="-600" y="580" width="120" height="80" as="geometry"/></mxCell><mxCell id="75" style="edgeStyle=orthogonalEdgeStyle;rounded=0;orthogonalLoop=1;jettySize=auto;html=1;entryX=1;entryY=0;entryDx=0;entryDy=0;" parent="1" source="80" target="107" edge="1"><mxGeometry relative="1" as="geometry"/></mxCell><mxCell id="76" style="edgeStyle=orthogonalEdgeStyle;rounded=0;orthogonalLoop=1;jettySize=auto;html=1;entryX=0.5;entryY=0;entryDx=0;entryDy=0;" parent="1" source="80" target="82" edge="1"><mxGeometry relative="1" as="geometry"/></mxCell><mxCell id="77" style="edgeStyle=orthogonalEdgeStyle;rounded=0;orthogonalLoop=1;jettySize=auto;html=1;entryX=1;entryY=0.5;entryDx=0;entryDy=0;" parent="1" source="80" target="81" edge="1"><mxGeometry relative="1" as="geometry"/></mxCell><mxCell id="78" style="edgeStyle=orthogonalEdgeStyle;rounded=0;orthogonalLoop=1;jettySize=auto;html=1;entryX=1;entryY=0.5;entryDx=0;entryDy=0;" parent="1" source="80" target="108" edge="1"><mxGeometry relative="1" as="geometry"/></mxCell><mxCell id="79" value="N" style="edgeStyle=orthogonalEdgeStyle;rounded=0;orthogonalLoop=1;jettySize=auto;html=1;entryX=0.5;entryY=0;entryDx=0;entryDy=0;" parent="1" source="80" target="84" edge="1"><mxGeometry x="-0.7241" relative="1" as="geometry"><Array as="points"><mxPoint x="-770" y="690"/><mxPoint x="-770" y="690"/></Array><mxPoint as="offset"/></mxGeometry></mxCell><mxCell id="80" value="rega" style="whiteSpace=wrap;html=1;fillColor=#ffe6cc;strokeColor=#d79b00;" parent="1" vertex="1"><mxGeometry x="-830" y="590" width="120" height="60" as="geometry"/></mxCell><mxCell id="81" value="tipo_rega" style="ellipse;whiteSpace=wrap;html=1;fillColor=#f8cecc;strokeColor=#b85450;" parent="1" vertex="1"><mxGeometry x="-1100" y="560" width="120" height="80" as="geometry"/></mxCell><mxCell id="82" value="distribuicao" style="ellipse;whiteSpace=wrap;html=1;fillColor=#f8cecc;strokeColor=#b85450;" parent="1" vertex="1"><mxGeometry x="-1030" y="650" width="120" height="80" as="geometry"/></mxCell><mxCell id="83" value="1" style="edgeStyle=orthogonalEdgeStyle;rounded=0;orthogonalLoop=1;jettySize=auto;html=1;" parent="1" source="84" target="89" edge="1"><mxGeometry x="0.7143" relative="1" as="geometry"><mxPoint as="offset"/></mxGeometry></mxCell><mxCell id="84" value="utiliza" style="rhombus;whiteSpace=wrap;html=1;fillColor=#fff2cc;strokeColor=#d6b656;" parent="1" vertex="1"><mxGeometry x="-830" y="940" width="120" height="80" as="geometry"/></mxCell><mxCell id="85" style="edgeStyle=orthogonalEdgeStyle;rounded=0;orthogonalLoop=1;jettySize=auto;html=1;entryX=1;entryY=0.5;entryDx=0;entryDy=0;" parent="1" source="89" target="92" edge="1"><mxGeometry relative="1" as="geometry"/></mxCell><mxCell id="86" style="edgeStyle=orthogonalEdgeStyle;rounded=0;orthogonalLoop=1;jettySize=auto;html=1;" parent="1" source="89" target="90" edge="1"><mxGeometry relative="1" as="geometry"/></mxCell><mxCell id="87" style="edgeStyle=orthogonalEdgeStyle;rounded=0;orthogonalLoop=1;jettySize=auto;html=1;entryX=1;entryY=0;entryDx=0;entryDy=0;" parent="1" source="89" target="91" edge="1"><mxGeometry relative="1" as="geometry"/></mxCell><mxCell id="88" style="edgeStyle=orthogonalEdgeStyle;rounded=0;orthogonalLoop=1;jettySize=auto;html=1;entryX=0.5;entryY=1;entryDx=0;entryDy=0;" parent="1" source="89" target="104" edge="1"><mxGeometry relative="1" as="geometry"/></mxCell><mxCell id="89" value="plano_rega" style="whiteSpace=wrap;html=1;fillColor=#ffe6cc;strokeColor=#d79b00;" parent="1" vertex="1"><mxGeometry x="-1090" y="950" width="120" height="60" as="geometry"/></mxCell><mxCell id="90" value="periodicidade" style="ellipse;whiteSpace=wrap;html=1;fillColor=#f8cecc;strokeColor=#b85450;" parent="1" vertex="1"><mxGeometry x="-1090" y="1070" width="120" height="80" as="geometry"/></mxCell><mxCell id="91" value="tempo_rega" style="ellipse;whiteSpace=wrap;html=1;fillColor=#f8cecc;strokeColor=#b85450;" parent="1" vertex="1"><mxGeometry x="-1240" y="1050" width="120" height="80" as="geometry"/></mxCell><mxCell id="92" value="ordem_parcelas" style="ellipse;whiteSpace=wrap;html=1;fillColor=#f8cecc;strokeColor=#b85450;" parent="1" vertex="1"><mxGeometry x="-1300" y="940" width="120" height="80" as="geometry"/></mxCell><mxCell id="93" style="edgeStyle=orthogonalEdgeStyle;rounded=0;orthogonalLoop=1;jettySize=auto;html=1;" parent="1" source="94" target="105" edge="1"><mxGeometry relative="1" as="geometry"/></mxCell><mxCell id="94" value="estacao_meteorológica" style="whiteSpace=wrap;html=1;fillColor=#ffe6cc;strokeColor=#d79b00;" parent="1" vertex="1"><mxGeometry x="360" y="1170" width="120" height="60" as="geometry"/></mxCell><mxCell id="95" value="N" style="edgeStyle=orthogonalEdgeStyle;rounded=0;orthogonalLoop=1;jettySize=auto;html=1;entryX=0;entryY=0.5;entryDx=0;entryDy=0;" parent="1" source="96" target="103" edge="1"><mxGeometry relative="1" as="geometry"/></mxCell><mxCell id="96" value="contém" style="rhombus;whiteSpace=wrap;html=1;fillColor=#fff2cc;strokeColor=#d6b656;" parent="1" vertex="1"><mxGeometry x="630" y="950" width="120" height="80" as="geometry"/></mxCell><mxCell id="97" value="1" style="edgeStyle=orthogonalEdgeStyle;rounded=0;orthogonalLoop=1;jettySize=auto;html=1;entryX=1;entryY=0.5;entryDx=0;entryDy=0;" parent="1" source="98" target="94" edge="1"><mxGeometry x="0.7143" relative="1" as="geometry"><mxPoint as="offset"/></mxGeometry></mxCell><mxCell id="98" value="constitiuda" style="rhombus;whiteSpace=wrap;html=1;fillColor=#fff2cc;strokeColor=#d6b656;" parent="1" vertex="1"><mxGeometry x="690" y="1160" width="120" height="80" as="geometry"/></mxCell><mxCell id="99" style="edgeStyle=orthogonalEdgeStyle;rounded=0;orthogonalLoop=1;jettySize=auto;html=1;" parent="1" source="103" target="137" edge="1"><mxGeometry relative="1" as="geometry"/></mxCell><mxCell id="100" value="N" style="edgeStyle=orthogonalEdgeStyle;rounded=0;orthogonalLoop=1;jettySize=auto;html=1;entryX=1;entryY=0.5;entryDx=0;entryDy=0;" parent="1" source="103" target="98" edge="1"><mxGeometry x="-0.3611" relative="1" as="geometry"><mxPoint as="offset"/></mxGeometry></mxCell><mxCell id="101" value="N" style="edgeStyle=orthogonalEdgeStyle;rounded=0;orthogonalLoop=1;jettySize=auto;html=1;entryX=0.5;entryY=0;entryDx=0;entryDy=0;" parent="1" source="103" target="122" edge="1"><mxGeometry x="0.3573" relative="1" as="geometry"><mxPoint y="-1" as="offset"/></mxGeometry></mxCell><mxCell id="102" value="1" style="edgeStyle=orthogonalEdgeStyle;rounded=0;orthogonalLoop=1;jettySize=auto;html=1;entryX=0;entryY=0.5;entryDx=0;entryDy=0;" parent="1" source="103" target="159" edge="1"><mxGeometry x="0.2903" relative="1" as="geometry"><mxPoint as="offset"/></mxGeometry></mxCell><mxCell id="103" value="sensor" style="whiteSpace=wrap;html=1;fillColor=#ffe6cc;strokeColor=#d79b00;" parent="1" vertex="1"><mxGeometry x="960" y="960" width="120" height="60" as="geometry"/></mxCell><mxCell id="104" value="id_plano" style="ellipse;whiteSpace=wrap;html=1;fillColor=#f8cecc;strokeColor=#b85450;" parent="1" vertex="1"><mxGeometry x="-1220" y="850" width="120" height="80" as="geometry"/></mxCell><mxCell id="105" value="id_estacao" style="ellipse;whiteSpace=wrap;html=1;fillColor=#f8cecc;strokeColor=#b85450;" parent="1" vertex="1"><mxGeometry x="360" y="1290" width="120" height="80" as="geometry"/></mxCell><mxCell id="106" value="id_quinta" style="ellipse;whiteSpace=wrap;html=1;fillColor=#f8cecc;strokeColor=#b85450;" parent="1" vertex="1"><mxGeometry x="-500" y="-250" width="120" height="80" as="geometry"/></mxCell><mxCell id="107" value="quantidade" style="ellipse;whiteSpace=wrap;html=1;fillColor=#f8cecc;strokeColor=#b85450;" parent="1" vertex="1"><mxGeometry x="-920" y="700" width="120" height="80" as="geometry"/></mxCell><mxCell id="108" value="data_rega" style="ellipse;whiteSpace=wrap;html=1;fillColor=#f8cecc;strokeColor=#b85450;" parent="1" vertex="1"><mxGeometry x="-980" y="500" width="120" height="80" as="geometry"/></mxCell><mxCell id="109" value="tipo_fertilizacao" style="ellipse;whiteSpace=wrap;html=1;fillColor=#f8cecc;strokeColor=#b85450;" parent="1" vertex="1"><mxGeometry x="870" y="345" width="120" height="80" as="geometry"/></mxCell><mxCell id="110" style="edgeStyle=orthogonalEdgeStyle;rounded=0;orthogonalLoop=1;jettySize=auto;html=1;entryX=1;entryY=1;entryDx=0;entryDy=0;" parent="1" source="115" target="117" edge="1"><mxGeometry relative="1" as="geometry"/></mxCell><mxCell id="111" style="edgeStyle=orthogonalEdgeStyle;rounded=0;orthogonalLoop=1;jettySize=auto;html=1;" parent="1" source="115" target="139" edge="1"><mxGeometry relative="1" as="geometry"/></mxCell><mxCell id="112" style="edgeStyle=orthogonalEdgeStyle;rounded=0;orthogonalLoop=1;jettySize=auto;html=1;entryX=0.5;entryY=1;entryDx=0;entryDy=0;" parent="1" source="115" target="116" edge="1"><mxGeometry relative="1" as="geometry"/></mxCell><mxCell id="113" style="edgeStyle=orthogonalEdgeStyle;rounded=0;orthogonalLoop=1;jettySize=auto;html=1;entryX=0;entryY=0.5;entryDx=0;entryDy=0;" parent="1" source="115" target="217" edge="1"><mxGeometry relative="1" as="geometry"/></mxCell><mxCell id="114" style="edgeStyle=orthogonalEdgeStyle;rounded=0;orthogonalLoop=1;jettySize=auto;html=1;entryX=1;entryY=0.5;entryDx=0;entryDy=0;" parent="1" source="115" target="118" edge="1"><mxGeometry relative="1" as="geometry"/></mxCell><mxCell id="261" style="edgeStyle=orthogonalEdgeStyle;rounded=0;orthogonalLoop=1;jettySize=auto;html=1;entryX=0.5;entryY=1;entryDx=0;entryDy=0;" parent="1" source="115" target="260" edge="1"><mxGeometry relative="1" as="geometry"/></mxCell><mxCell id="115" value="encomenda" style="rounded=0;whiteSpace=wrap;html=1;fillColor=#ffe6cc;strokeColor=#d79b00;" parent="1" vertex="1"><mxGeometry x="-650" y="-860" width="120" height="60" as="geometry"/></mxCell><mxCell id="116" value="preco_total" style="ellipse;whiteSpace=wrap;html=1;fillColor=#f8cecc;strokeColor=#b85450;" parent="1" vertex="1"><mxGeometry x="-650" y="-1000" width="120" height="80" as="geometry"/></mxCell><mxCell id="117" value="data_venda" style="ellipse;whiteSpace=wrap;html=1;fillColor=#f8cecc;strokeColor=#b85450;" parent="1" vertex="1"><mxGeometry x="-770" y="-980" width="120" height="80" as="geometry"/></mxCell><mxCell id="118" value="id_cliente" style="ellipse;whiteSpace=wrap;html=1;fillColor=#f8cecc;strokeColor=#b85450;" parent="1" vertex="1"><mxGeometry x="-730" y="-760" width="120" height="80" as="geometry"/></mxCell><mxCell id="119" value="N" style="edgeStyle=orthogonalEdgeStyle;rounded=0;orthogonalLoop=1;jettySize=auto;html=1;entryX=0.5;entryY=1;entryDx=0;entryDy=0;" parent="1" source="120" target="211" edge="1"><mxGeometry x="0.8543" relative="1" as="geometry"><mxPoint x="-1" as="offset"/></mxGeometry></mxCell><mxCell id="120" value="regista" style="rhombus;whiteSpace=wrap;html=1;fillColor=#fff2cc;strokeColor=#d6b656;" parent="1" vertex="1"><mxGeometry x="-600" y="-400" width="120" height="80" as="geometry"/></mxCell><mxCell id="121" value="1" style="edgeStyle=orthogonalEdgeStyle;rounded=0;orthogonalLoop=1;jettySize=auto;html=1;entryX=1;entryY=0.5;entryDx=0;entryDy=0;" parent="1" source="122" target="125" edge="1"><mxGeometry x="0.3329" relative="1" as="geometry"><mxPoint as="offset"/></mxGeometry></mxCell><mxCell id="122" value="tem" style="rhombus;whiteSpace=wrap;html=1;fillColor=#fff2cc;strokeColor=#d6b656;" parent="1" vertex="1"><mxGeometry x="1180" y="1110" width="120" height="80" as="geometry"/></mxCell><mxCell id="123" style="edgeStyle=orthogonalEdgeStyle;rounded=0;orthogonalLoop=1;jettySize=auto;html=1;entryX=1;entryY=0.5;entryDx=0;entryDy=0;" parent="1" source="125" target="126" edge="1"><mxGeometry relative="1" as="geometry"/></mxCell><mxCell id="124" style="edgeStyle=orthogonalEdgeStyle;rounded=0;orthogonalLoop=1;jettySize=auto;html=1;entryX=1;entryY=0.5;entryDx=0;entryDy=0;" parent="1" source="125" target="127" edge="1"><mxGeometry relative="1" as="geometry"/></mxCell><mxCell id="125" value="tipo_sensor" style="whiteSpace=wrap;html=1;fillColor=#ffe6cc;strokeColor=#d79b00;" parent="1" vertex="1"><mxGeometry x="1100" y="1290" width="120" height="60" as="geometry"/></mxCell><mxCell id="126" value="tipo" style="ellipse;whiteSpace=wrap;html=1;fillColor=#f8cecc;strokeColor=#b85450;" parent="1" vertex="1"><mxGeometry x="930" y="1340" width="120" height="80" as="geometry"/></mxCell><mxCell id="127" value="quantidade_sensor_tipo" style="ellipse;whiteSpace=wrap;html=1;fillColor=#f8cecc;strokeColor=#b85450;" parent="1" vertex="1"><mxGeometry x="910" y="1240" width="140" height="80" as="geometry"/></mxCell><mxCell id="135" value="objetivo" style="ellipse;whiteSpace=wrap;html=1;fillColor=#f8cecc;strokeColor=#b85450;" parent="1" vertex="1"><mxGeometry x="-1400" y="120" width="120" height="80" as="geometry"/></mxCell><mxCell id="136" value="id_cultura" style="ellipse;whiteSpace=wrap;html=1;fillColor=#f8cecc;strokeColor=#b85450;" parent="1" vertex="1"><mxGeometry x="-1400" y="260" width="120" height="80" as="geometry"/></mxCell><mxCell id="137" value="id_sensor" style="ellipse;whiteSpace=wrap;html=1;fillColor=#f8cecc;strokeColor=#b85450;" parent="1" vertex="1"><mxGeometry x="960" y="850" width="120" height="80" as="geometry"/></mxCell><mxCell id="138" value="id_fator" style="ellipse;whiteSpace=wrap;html=1;fillColor=#f8cecc;strokeColor=#b85450;" parent="1" vertex="1"><mxGeometry x="1150" y="410" width="120" height="80" as="geometry"/></mxCell><mxCell id="139" value="id_venda" style="ellipse;whiteSpace=wrap;html=1;fillColor=#f8cecc;strokeColor=#b85450;" parent="1" vertex="1"><mxGeometry x="-530" y="-980" width="120" height="80" as="geometry"/></mxCell><mxCell id="140" value="id_sistema" style="ellipse;whiteSpace=wrap;html=1;fillColor=#f8cecc;strokeColor=#b85450;" parent="1" vertex="1"><mxGeometry x="-490" y="385" width="120" height="80" as="geometry"/></mxCell><mxCell id="141" value="1" style="edgeStyle=orthogonalEdgeStyle;rounded=0;orthogonalLoop=1;jettySize=auto;html=1;" parent="1" source="142" target="149" edge="1"><mxGeometry x="-1" y="-492" relative="1" as="geometry"><mxPoint x="-2" y="40" as="offset"/></mxGeometry></mxCell><mxCell id="142" value="trabalha" style="rhombus;whiteSpace=wrap;html=1;fillColor=#fff2cc;strokeColor=#d6b656;" parent="1" vertex="1"><mxGeometry x="-1160" y="-110" width="120" height="80" as="geometry"/></mxCell><mxCell id="143" value="especie" style="ellipse;whiteSpace=wrap;html=1;fillColor=#f8cecc;strokeColor=#b85450;" parent="1" vertex="1"><mxGeometry x="-1280" y="300" width="120" height="80" as="geometry"/></mxCell><mxCell id="144" value="nome" style="ellipse;whiteSpace=wrap;html=1;fillColor=#f8cecc;strokeColor=#b85450;" parent="1" vertex="1"><mxGeometry x="-700" y="-250" width="120" height="80" as="geometry"/></mxCell><mxCell id="145" style="edgeStyle=orthogonalEdgeStyle;rounded=0;orthogonalLoop=1;jettySize=auto;html=1;entryX=1;entryY=0.5;entryDx=0;entryDy=0;" parent="1" source="149" target="153" edge="1"><mxGeometry relative="1" as="geometry"/></mxCell><mxCell id="146" style="edgeStyle=orthogonalEdgeStyle;rounded=0;orthogonalLoop=1;jettySize=auto;html=1;entryX=1;entryY=0.5;entryDx=0;entryDy=0;" parent="1" source="149" target="152" edge="1"><mxGeometry relative="1" as="geometry"/></mxCell><mxCell id="147" style="edgeStyle=orthogonalEdgeStyle;rounded=0;orthogonalLoop=1;jettySize=auto;html=1;entryX=1;entryY=0.5;entryDx=0;entryDy=0;" parent="1" source="149" target="150" edge="1"><mxGeometry relative="1" as="geometry"/></mxCell><mxCell id="148" style="edgeStyle=orthogonalEdgeStyle;rounded=0;orthogonalLoop=1;jettySize=auto;html=1;entryX=1;entryY=0.5;entryDx=0;entryDy=0;" parent="1" source="149" target="151" edge="1"><mxGeometry relative="1" as="geometry"/></mxCell><mxCell id="149" value="produtor" style="whiteSpace=wrap;html=1;fillColor=#ffe6cc;strokeColor=#d79b00;" parent="1" vertex="1"><mxGeometry x="-1160" y="-340" width="120" height="60" as="geometry"/></mxCell><mxCell id="150" value="nome" style="ellipse;whiteSpace=wrap;html=1;fillColor=#f8cecc;strokeColor=#b85450;" parent="1" vertex="1"><mxGeometry x="-1390" y="-430" width="120" height="80" as="geometry"/></mxCell><mxCell id="151" value="email" style="ellipse;whiteSpace=wrap;html=1;fillColor=#f8cecc;strokeColor=#b85450;" parent="1" vertex="1"><mxGeometry x="-1390" y="-330" width="120" height="80" as="geometry"/></mxCell><mxCell id="152" value="morada_entrega" style="ellipse;whiteSpace=wrap;html=1;fillColor=#f8cecc;strokeColor=#b85450;" parent="1" vertex="1"><mxGeometry x="-1280" y="-270" width="120" height="80" as="geometry"/></mxCell><mxCell id="153" value="id_produtor" style="ellipse;whiteSpace=wrap;html=1;fillColor=#f8cecc;strokeColor=#b85450;" parent="1" vertex="1"><mxGeometry x="-1200" y="-450" width="120" height="80" as="geometry"/></mxCell><mxCell id="157" value="nParcelas" style="ellipse;whiteSpace=wrap;html=1;fillColor=#f8cecc;strokeColor=#b85450;" parent="1" vertex="1"><mxGeometry x="360" y="850" width="120" height="80" as="geometry"/></mxCell><mxCell id="158" value="1" style="edgeStyle=orthogonalEdgeStyle;rounded=0;orthogonalLoop=1;jettySize=auto;html=1;entryX=0.5;entryY=1;entryDx=0;entryDy=0;" parent="1" source="159" target="164" edge="1"><mxGeometry relative="1" as="geometry"/></mxCell><mxCell id="159" value="regista" style="rhombus;whiteSpace=wrap;html=1;fillColor=#fff2cc;strokeColor=#d6b656;" parent="1" vertex="1"><mxGeometry x="1390" y="950" width="120" height="80" as="geometry"/></mxCell><mxCell id="160" style="edgeStyle=orthogonalEdgeStyle;rounded=0;orthogonalLoop=1;jettySize=auto;html=1;entryX=0;entryY=0.5;entryDx=0;entryDy=0;" parent="1" source="164" target="167" edge="1"><mxGeometry relative="1" as="geometry"/></mxCell><mxCell id="161" style="edgeStyle=orthogonalEdgeStyle;rounded=0;orthogonalLoop=1;jettySize=auto;html=1;entryX=0.5;entryY=1;entryDx=0;entryDy=0;" parent="1" source="164" target="165" edge="1"><mxGeometry relative="1" as="geometry"/></mxCell><mxCell id="162" style="edgeStyle=orthogonalEdgeStyle;rounded=0;orthogonalLoop=1;jettySize=auto;html=1;exitX=1;exitY=0.5;exitDx=0;exitDy=0;entryX=0.5;entryY=1;entryDx=0;entryDy=0;" parent="1" source="164" target="166" edge="1"><mxGeometry relative="1" as="geometry"/></mxCell><mxCell id="163" style="edgeStyle=orthogonalEdgeStyle;rounded=0;orthogonalLoop=1;jettySize=auto;html=1;entryX=0.5;entryY=0;entryDx=0;entryDy=0;" parent="1" source="164" target="168" edge="1"><mxGeometry relative="1" as="geometry"/></mxCell><mxCell id="164" value="dados_sensor" style="whiteSpace=wrap;html=1;fillColor=#ffe6cc;strokeColor=#d79b00;" parent="1" vertex="1"><mxGeometry x="1390" y="800" width="120" height="60" as="geometry"/></mxCell><mxCell id="165" value="id_dados" style="ellipse;whiteSpace=wrap;html=1;fillColor=#f8cecc;strokeColor=#b85450;" parent="1" vertex="1"><mxGeometry x="1390" y="680" width="120" height="80" as="geometry"/></mxCell><mxCell id="166" value="data" style="ellipse;whiteSpace=wrap;html=1;fillColor=#f8cecc;strokeColor=#b85450;" parent="1" vertex="1"><mxGeometry x="1520" y="700" width="120" height="80" as="geometry"/></mxCell><mxCell id="167" value="unidade" style="ellipse;whiteSpace=wrap;html=1;fillColor=#f8cecc;strokeColor=#b85450;" parent="1" vertex="1"><mxGeometry x="1610" y="790" width="120" height="80" as="geometry"/></mxCell><mxCell id="168" value="valor" style="ellipse;whiteSpace=wrap;html=1;fillColor=#f8cecc;strokeColor=#b85450;" parent="1" vertex="1"><mxGeometry x="1520" y="870" width="120" height="80" as="geometry"/></mxCell><mxCell id="169" style="edgeStyle=orthogonalEdgeStyle;rounded=0;orthogonalLoop=1;jettySize=auto;html=1;entryX=1;entryY=0.5;entryDx=0;entryDy=0;" parent="1" source="175" target="180" edge="1"><mxGeometry relative="1" as="geometry"/></mxCell><mxCell id="170" style="edgeStyle=orthogonalEdgeStyle;rounded=0;orthogonalLoop=1;jettySize=auto;html=1;entryX=0;entryY=0.5;entryDx=0;entryDy=0;" parent="1" source="175" target="178" edge="1"><mxGeometry relative="1" as="geometry"/></mxCell><mxCell id="171" style="edgeStyle=orthogonalEdgeStyle;rounded=0;orthogonalLoop=1;jettySize=auto;html=1;entryX=0.5;entryY=1;entryDx=0;entryDy=0;" parent="1" source="175" target="177" edge="1"><mxGeometry relative="1" as="geometry"/></mxCell><mxCell id="172" style="edgeStyle=orthogonalEdgeStyle;rounded=0;orthogonalLoop=1;jettySize=auto;html=1;entryX=0.5;entryY=1;entryDx=0;entryDy=0;" parent="1" source="175" target="179" edge="1"><mxGeometry relative="1" as="geometry"/></mxCell><mxCell id="173" style="edgeStyle=orthogonalEdgeStyle;rounded=0;orthogonalLoop=1;jettySize=auto;html=1;entryX=1;entryY=0.5;entryDx=0;entryDy=0;" parent="1" source="175" target="176" edge="1"><mxGeometry relative="1" as="geometry"><Array as="points"><mxPoint x="-2000" y="-30"/><mxPoint x="-2000" y="-10"/></Array></mxGeometry></mxCell><mxCell id="174" value="N" style="edgeStyle=orthogonalEdgeStyle;rounded=0;orthogonalLoop=1;jettySize=auto;html=1;exitX=0.5;exitY=0;exitDx=0;exitDy=0;entryX=0.5;entryY=1;entryDx=0;entryDy=0;" parent="1" source="175" target="184" edge="1"><mxGeometry x="-0.8571" relative="1" as="geometry"><mxPoint as="offset"/></mxGeometry></mxCell><mxCell id="289" style="edgeStyle=orthogonalEdgeStyle;rounded=0;orthogonalLoop=1;jettySize=auto;html=1;entryX=0;entryY=0.5;entryDx=0;entryDy=0;exitX=0.5;exitY=0;exitDx=0;exitDy=0;" parent="1" source="175" target="288" edge="1"><mxGeometry relative="1" as="geometry"/></mxCell><mxCell id="175" value="colheita" style="rounded=0;whiteSpace=wrap;html=1;fillColor=#ffe6cc;strokeColor=#d79b00;" parent="1" vertex="1"><mxGeometry x="-1960" y="-60" width="120" height="60" as="geometry"/></mxCell><mxCell id="176" value="data" style="ellipse;whiteSpace=wrap;html=1;fillColor=#f8cecc;strokeColor=#b85450;" parent="1" vertex="1"><mxGeometry x="-2200" y="-50" width="120" height="80" as="geometry"/></mxCell><mxCell id="177" value="produto" style="ellipse;whiteSpace=wrap;html=1;fillColor=#f8cecc;strokeColor=#b85450;" parent="1" vertex="1"><mxGeometry x="-1870" y="-210" width="120" height="80" as="geometry"/></mxCell><mxCell id="178" value="quantidade" style="ellipse;whiteSpace=wrap;html=1;fillColor=#f8cecc;strokeColor=#b85450;" parent="1" vertex="1"><mxGeometry x="-1750" y="-130" width="120" height="80" as="geometry"/></mxCell><mxCell id="179" value="parcelas" style="ellipse;whiteSpace=wrap;html=1;fillColor=#f8cecc;strokeColor=#b85450;" parent="1" vertex="1"><mxGeometry x="-2040" y="-210" width="120" height="80" as="geometry"/></mxCell><mxCell id="180" value="numero_colheita" style="ellipse;whiteSpace=wrap;html=1;fillColor=#f8cecc;strokeColor=#b85450;" parent="1" vertex="1"><mxGeometry x="-2160" y="-160" width="120" height="80" as="geometry"/></mxCell><mxCell id="181" value="N" style="edgeStyle=orthogonalEdgeStyle;rounded=0;orthogonalLoop=1;jettySize=auto;html=1;exitX=0.5;exitY=0;exitDx=0;exitDy=0;" parent="1" source="182" target="175" edge="1"><mxGeometry x="0.7895" relative="1" as="geometry"><mxPoint y="1" as="offset"/></mxGeometry></mxCell><mxCell id="182" value="realiza" style="rhombus;whiteSpace=wrap;html=1;fillColor=#fff2cc;strokeColor=#d6b656;" parent="1" vertex="1"><mxGeometry x="-1960" y="190" width="120" height="80" as="geometry"/></mxCell><mxCell id="183" value="1" style="edgeStyle=orthogonalEdgeStyle;rounded=0;orthogonalLoop=1;jettySize=auto;html=1;entryX=0.5;entryY=1;entryDx=0;entryDy=0;" parent="1" source="184" target="190" edge="1"><mxGeometry x="0.8065" relative="1" as="geometry"><mxPoint as="offset"/></mxGeometry></mxCell><mxCell id="184" value="gera" style="rhombus;whiteSpace=wrap;html=1;fillColor=#fff2cc;strokeColor=#d6b656;" parent="1" vertex="1"><mxGeometry x="-1960" y="-420" width="120" height="80" as="geometry"/></mxCell><mxCell id="185" style="edgeStyle=orthogonalEdgeStyle;rounded=0;orthogonalLoop=1;jettySize=auto;html=1;exitX=0;exitY=0.5;exitDx=0;exitDy=0;entryX=1;entryY=0.5;entryDx=0;entryDy=0;" parent="1" source="190" target="194" edge="1"><mxGeometry relative="1" as="geometry"/></mxCell><mxCell id="186" style="edgeStyle=orthogonalEdgeStyle;rounded=0;orthogonalLoop=1;jettySize=auto;html=1;entryX=1;entryY=1;entryDx=0;entryDy=0;" parent="1" source="190" target="195" edge="1"><mxGeometry relative="1" as="geometry"/></mxCell><mxCell id="187" style="edgeStyle=orthogonalEdgeStyle;rounded=0;orthogonalLoop=1;jettySize=auto;html=1;entryX=0.5;entryY=1;entryDx=0;entryDy=0;" parent="1" source="190" target="192" edge="1"><mxGeometry relative="1" as="geometry"/></mxCell><mxCell id="188" style="edgeStyle=orthogonalEdgeStyle;rounded=0;orthogonalLoop=1;jettySize=auto;html=1;entryX=0.5;entryY=0;entryDx=0;entryDy=0;" parent="1" source="190" target="191" edge="1"><mxGeometry relative="1" as="geometry"/></mxCell><mxCell id="189" value="N" style="edgeStyle=orthogonalEdgeStyle;rounded=0;orthogonalLoop=1;jettySize=auto;html=1;" parent="1" source="190" target="197" edge="1"><mxGeometry x="-0.7647" relative="1" as="geometry"><mxPoint as="offset"/></mxGeometry></mxCell><mxCell id="190" value="cabaz" style="rounded=0;whiteSpace=wrap;html=1;fillColor=#ffe6cc;strokeColor=#d79b00;" parent="1" vertex="1"><mxGeometry x="-1960" y="-790" width="120" height="60" as="geometry"/></mxCell><mxCell id="191" value="id_cabaz" style="ellipse;whiteSpace=wrap;html=1;fillColor=#f8cecc;strokeColor=#b85450;" parent="1" vertex="1"><mxGeometry x="-2100" y="-730" width="120" height="80" as="geometry"/></mxCell><mxCell id="192" value="preco" style="ellipse;whiteSpace=wrap;html=1;fillColor=#f8cecc;strokeColor=#b85450;" parent="1" vertex="1"><mxGeometry x="-2000" y="-920" width="120" height="80" as="geometry"/></mxCell><mxCell id="193" style="edgeStyle=orthogonalEdgeStyle;rounded=0;orthogonalLoop=1;jettySize=auto;html=1;exitX=0.5;exitY=1;exitDx=0;exitDy=0;" parent="1" source="195" target="195" edge="1"><mxGeometry relative="1" as="geometry"/></mxCell><mxCell id="194" value="quantidade" style="ellipse;whiteSpace=wrap;html=1;fillColor=#f8cecc;strokeColor=#b85450;" parent="1" vertex="1"><mxGeometry x="-2210" y="-800" width="120" height="80" as="geometry"/></mxCell><mxCell id="195" value="produto" style="ellipse;whiteSpace=wrap;html=1;fillColor=#f8cecc;strokeColor=#b85450;" parent="1" vertex="1"><mxGeometry x="-2130" y="-880" width="120" height="80" as="geometry"/></mxCell><mxCell id="196" value="1" style="edgeStyle=orthogonalEdgeStyle;rounded=0;orthogonalLoop=1;jettySize=auto;html=1;entryX=0.5;entryY=1;entryDx=0;entryDy=0;" parent="1" source="197" target="201" edge="1"><mxGeometry x="0.7693" relative="1" as="geometry"><Array as="points"><mxPoint x="-1370" y="-760"/></Array><mxPoint y="1" as="offset"/></mxGeometry></mxCell><mxCell id="197" value="distribui" style="rhombus;whiteSpace=wrap;html=1;fillColor=#fff2cc;strokeColor=#d6b656;" parent="1" vertex="1"><mxGeometry x="-1670" y="-800" width="120" height="80" as="geometry"/></mxCell><mxCell id="198" style="edgeStyle=orthogonalEdgeStyle;rounded=0;orthogonalLoop=1;jettySize=auto;html=1;entryX=0.5;entryY=1;entryDx=0;entryDy=0;" parent="1" source="201" target="202" edge="1"><mxGeometry relative="1" as="geometry"/></mxCell><mxCell id="199" style="edgeStyle=orthogonalEdgeStyle;rounded=0;orthogonalLoop=1;jettySize=auto;html=1;entryX=0.5;entryY=1;entryDx=0;entryDy=0;" parent="1" source="201" target="203" edge="1"><mxGeometry relative="1" as="geometry"/></mxCell><mxCell id="200" value="1" style="edgeStyle=orthogonalEdgeStyle;rounded=0;orthogonalLoop=1;jettySize=auto;html=1;" parent="1" source="201" target="205" edge="1"><mxGeometry x="-0.8125" relative="1" as="geometry"><mxPoint x="-1" as="offset"/></mxGeometry></mxCell><mxCell id="201" value="hub" style="rounded=0;whiteSpace=wrap;html=1;fillColor=#ffe6cc;strokeColor=#d79b00;" parent="1" vertex="1"><mxGeometry x="-1430" y="-900" width="120" height="60" as="geometry"/></mxCell><mxCell id="202" value="id_hub" style="ellipse;whiteSpace=wrap;html=1;fillColor=#f8cecc;strokeColor=#b85450;" parent="1" vertex="1"><mxGeometry x="-1500" y="-1020" width="120" height="80" as="geometry"/></mxCell><mxCell id="203" value="nCabazes_disponiveis" style="ellipse;whiteSpace=wrap;html=1;fillColor=#f8cecc;strokeColor=#b85450;" parent="1" vertex="1"><mxGeometry x="-1360" y="-1020" width="120" height="80" as="geometry"/></mxCell><mxCell id="204" style="edgeStyle=orthogonalEdgeStyle;rounded=0;orthogonalLoop=1;jettySize=auto;html=1;entryX=0;entryY=0.5;entryDx=0;entryDy=0;" parent="1" source="205" target="115" edge="1"><mxGeometry relative="1" as="geometry"/></mxCell><mxCell id="205" value="dispoêm" style="rhombus;whiteSpace=wrap;html=1;fillColor=#fff2cc;strokeColor=#d6b656;" parent="1" vertex="1"><mxGeometry x="-1030" y="-870" width="120" height="80" as="geometry"/></mxCell><mxCell id="206" style="edgeStyle=orthogonalEdgeStyle;rounded=0;orthogonalLoop=1;jettySize=auto;html=1;" parent="1" source="211" target="213" edge="1"><mxGeometry relative="1" as="geometry"/></mxCell><mxCell id="207" style="edgeStyle=orthogonalEdgeStyle;rounded=0;orthogonalLoop=1;jettySize=auto;html=1;entryX=0.5;entryY=1;entryDx=0;entryDy=0;" parent="1" source="211" target="212" edge="1"><mxGeometry relative="1" as="geometry"/></mxCell><mxCell id="208" style="edgeStyle=orthogonalEdgeStyle;rounded=0;orthogonalLoop=1;jettySize=auto;html=1;entryX=0.5;entryY=1;entryDx=0;entryDy=0;" parent="1" source="211" target="214" edge="1"><mxGeometry relative="1" as="geometry"/></mxCell><mxCell id="209" style="edgeStyle=orthogonalEdgeStyle;rounded=0;orthogonalLoop=1;jettySize=auto;html=1;" parent="1" source="211" target="216" edge="1"><mxGeometry relative="1" as="geometry"/></mxCell><mxCell id="210" style="edgeStyle=orthogonalEdgeStyle;rounded=0;orthogonalLoop=1;jettySize=auto;html=1;entryX=0.006;entryY=0.66;entryDx=0;entryDy=0;entryPerimeter=0;" parent="1" source="211" target="215" edge="1"><mxGeometry relative="1" as="geometry"/></mxCell><mxCell id="211" value="caderno_campo" style="rounded=0;whiteSpace=wrap;html=1;fillColor=#ffe6cc;strokeColor=#d79b00;" parent="1" vertex="1"><mxGeometry x="-10" y="-440" width="120" height="60" as="geometry"/></mxCell><mxCell id="212" value="registo_colheita" style="ellipse;whiteSpace=wrap;html=1;fillColor=#f8cecc;strokeColor=#b85450;" parent="1" vertex="1"><mxGeometry x="-70" y="-600" width="120" height="80" as="geometry"/></mxCell><mxCell id="213" value="tipo_fertilizacao" style="ellipse;whiteSpace=wrap;html=1;fillColor=#f8cecc;strokeColor=#b85450;" parent="1" vertex="1"><mxGeometry x="220" y="-450" width="120" height="80" as="geometry"/></mxCell><mxCell id="214" value="dados_sensores" style="ellipse;whiteSpace=wrap;html=1;fillColor=#f8cecc;strokeColor=#b85450;" parent="1" vertex="1"><mxGeometry x="70" y="-600" width="120" height="80" as="geometry"/></mxCell><mxCell id="215" value="id_caderno" style="ellipse;whiteSpace=wrap;html=1;fillColor=#f8cecc;strokeColor=#b85450;" parent="1" vertex="1"><mxGeometry x="200" y="-560" width="120" height="80" as="geometry"/></mxCell><mxCell id="216" value="dados_regas" style="ellipse;whiteSpace=wrap;html=1;fillColor=#f8cecc;strokeColor=#b85450;" parent="1" vertex="1"><mxGeometry x="-210" y="-550" width="120" height="80" as="geometry"/></mxCell><mxCell id="217" value="quantidade_cabazes" style="ellipse;whiteSpace=wrap;html=1;fillColor=#f8cecc;strokeColor=#b85450;" parent="1" vertex="1"><mxGeometry x="-570" y="-760" width="120" height="80" as="geometry"/></mxCell><mxCell id="218" value="numero_fiscal" style="ellipse;whiteSpace=wrap;html=1;fillColor=#f8cecc;strokeColor=#b85450;" parent="1" vertex="1"><mxGeometry x="210" y="-790" width="120" height="80" as="geometry"/></mxCell><mxCell id="219" style="edgeStyle=orthogonalEdgeStyle;rounded=0;orthogonalLoop=1;jettySize=auto;html=1;" parent="1" source="231" target="235" edge="1"><mxGeometry relative="1" as="geometry"/></mxCell><mxCell id="220" style="edgeStyle=orthogonalEdgeStyle;rounded=0;orthogonalLoop=1;jettySize=auto;html=1;entryX=0.5;entryY=1;entryDx=0;entryDy=0;" parent="1" source="231" target="233" edge="1"><mxGeometry relative="1" as="geometry"/></mxCell><mxCell id="221" style="edgeStyle=orthogonalEdgeStyle;rounded=0;orthogonalLoop=1;jettySize=auto;html=1;entryX=0;entryY=0.5;entryDx=0;entryDy=0;" parent="1" source="231" target="240" edge="1"><mxGeometry relative="1" as="geometry"/></mxCell><mxCell id="222" style="edgeStyle=orthogonalEdgeStyle;rounded=0;orthogonalLoop=1;jettySize=auto;html=1;entryX=0;entryY=0.5;entryDx=0;entryDy=0;" parent="1" source="231" target="238" edge="1"><mxGeometry relative="1" as="geometry"/></mxCell><mxCell id="223" style="edgeStyle=orthogonalEdgeStyle;rounded=0;orthogonalLoop=1;jettySize=auto;html=1;entryX=0;entryY=0.5;entryDx=0;entryDy=0;" parent="1" source="231" target="237" edge="1"><mxGeometry relative="1" as="geometry"/></mxCell><mxCell id="224" style="edgeStyle=orthogonalEdgeStyle;rounded=0;orthogonalLoop=1;jettySize=auto;html=1;entryX=0.451;entryY=-0.022;entryDx=0;entryDy=0;entryPerimeter=0;" parent="1" source="231" target="241" edge="1"><mxGeometry relative="1" as="geometry"/></mxCell><mxCell id="225" style="edgeStyle=orthogonalEdgeStyle;rounded=0;orthogonalLoop=1;jettySize=auto;html=1;entryX=1;entryY=0.5;entryDx=0;entryDy=0;" parent="1" source="231" target="236" edge="1"><mxGeometry relative="1" as="geometry"/></mxCell><mxCell id="226" style="edgeStyle=orthogonalEdgeStyle;rounded=0;orthogonalLoop=1;jettySize=auto;html=1;entryX=0.989;entryY=0.654;entryDx=0;entryDy=0;entryPerimeter=0;" parent="1" source="231" target="218" edge="1"><mxGeometry relative="1" as="geometry"/></mxCell><mxCell id="227" style="edgeStyle=orthogonalEdgeStyle;rounded=0;orthogonalLoop=1;jettySize=auto;html=1;entryX=1;entryY=0.5;entryDx=0;entryDy=0;" parent="1" source="231" target="234" edge="1"><mxGeometry relative="1" as="geometry"/></mxCell><mxCell id="228" style="edgeStyle=orthogonalEdgeStyle;rounded=0;orthogonalLoop=1;jettySize=auto;html=1;entryX=1;entryY=0.5;entryDx=0;entryDy=0;" parent="1" source="231" target="232" edge="1"><mxGeometry relative="1" as="geometry"/></mxCell><mxCell id="229" style="edgeStyle=orthogonalEdgeStyle;rounded=0;orthogonalLoop=1;jettySize=auto;html=1;entryX=0;entryY=1;entryDx=0;entryDy=0;" parent="1" target="239" edge="1"><mxGeometry relative="1" as="geometry"><Array as="points"><mxPoint x="460" y="-930"/><mxPoint x="608" y="-930"/></Array><mxPoint x="440" y="-820" as="sourcePoint"/></mxGeometry></mxCell><mxCell id="230" value="N" style="edgeStyle=orthogonalEdgeStyle;rounded=0;orthogonalLoop=1;jettySize=auto;html=1;" parent="1" source="231" target="243" edge="1"><mxGeometry x="-0.8947" relative="1" as="geometry"><mxPoint x="1" as="offset"/></mxGeometry></mxCell><mxCell id="231" value="cliente" style="whiteSpace=wrap;html=1;fillColor=#ffe6cc;strokeColor=#d79b00;" parent="1" vertex="1"><mxGeometry x="400" y="-860" width="120" height="60" as="geometry"/></mxCell><mxCell id="232" value="nome" style="ellipse;whiteSpace=wrap;html=1;fillColor=#f8cecc;strokeColor=#b85450;" parent="1" vertex="1"><mxGeometry x="170" y="-1030" width="120" height="80" as="geometry"/></mxCell><mxCell id="233" value="nIncidentes" style="ellipse;whiteSpace=wrap;html=1;fillColor=#f8cecc;strokeColor=#b85450;" parent="1" vertex="1"><mxGeometry x="520" y="-1080" width="120" height="80" as="geometry"/></mxCell><mxCell id="234" value="email" style="ellipse;whiteSpace=wrap;html=1;fillColor=#f8cecc;strokeColor=#b85450;" parent="1" vertex="1"><mxGeometry x="170" y="-930" width="120" height="80" as="geometry"/></mxCell><mxCell id="235" value="id_cliente" style="ellipse;whiteSpace=wrap;html=1;fillColor=#f8cecc;strokeColor=#b85450;" parent="1" vertex="1"><mxGeometry x="320" y="-1090" width="120" height="80" as="geometry"/></mxCell><mxCell id="236" value="morada_correspondencia" style="ellipse;whiteSpace=wrap;html=1;fillColor=#f8cecc;strokeColor=#b85450;" parent="1" vertex="1"><mxGeometry x="270" y="-690" width="140" height="80" as="geometry"/></mxCell><mxCell id="237" value="morada_entrega" style="ellipse;whiteSpace=wrap;html=1;fillColor=#f8cecc;strokeColor=#b85450;" parent="1" vertex="1"><mxGeometry x="605" y="-790" width="120" height="80" as="geometry"/></mxCell><mxCell id="238" value="plafond" style="ellipse;whiteSpace=wrap;html=1;fillColor=#f8cecc;strokeColor=#b85450;" parent="1" vertex="1"><mxGeometry x="605" y="-900" width="120" height="80" as="geometry"/></mxCell><mxCell id="239" value="data_ultimo_incidente" style="ellipse;whiteSpace=wrap;html=1;fillColor=#f8cecc;strokeColor=#b85450;" parent="1" vertex="1"><mxGeometry x="590" y="-1000" width="120" height="80" as="geometry"/></mxCell><mxCell id="240" value="n_encomendas_ultimo_ano" style="ellipse;whiteSpace=wrap;html=1;fillColor=#f8cecc;strokeColor=#b85450;" parent="1" vertex="1"><mxGeometry x="490" y="-690" width="150" height="80" as="geometry"/></mxCell><mxCell id="241" value="valor_encomendas_utlimo_ano" style="ellipse;whiteSpace=wrap;html=1;fillColor=#f8cecc;strokeColor=#b85450;" parent="1" vertex="1"><mxGeometry x="380" y="-1180" width="175" height="80" as="geometry"/></mxCell><mxCell id="242" value="N" style="edgeStyle=orthogonalEdgeStyle;rounded=0;orthogonalLoop=1;jettySize=auto;html=1;entryX=1;entryY=0.5;entryDx=0;entryDy=0;" parent="1" source="243" target="115" edge="1"><mxGeometry x="0.8333" relative="1" as="geometry"><mxPoint as="offset"/></mxGeometry></mxCell><mxCell id="243" value="faz" style="rhombus;whiteSpace=wrap;html=1;fillColor=#fff2cc;strokeColor=#d6b656;" parent="1" vertex="1"><mxGeometry x="-290" y="-870" width="120" height="80" as="geometry"/></mxCell><mxCell id="244" value="N" style="edgeStyle=orthogonalEdgeStyle;rounded=0;orthogonalLoop=1;jettySize=auto;html=1;entryX=0;entryY=0.5;entryDx=0;entryDy=0;" parent="1" source="247" target="115" edge="1"><mxGeometry x="0.85" relative="1" as="geometry"><Array as="points"><mxPoint x="-870" y="-830"/></Array><mxPoint x="1" as="offset"/></mxGeometry></mxCell><mxCell id="245" style="edgeStyle=orthogonalEdgeStyle;rounded=0;orthogonalLoop=1;jettySize=auto;html=1;" parent="1" source="247" target="258" edge="1"><mxGeometry relative="1" as="geometry"/></mxCell><mxCell id="246" style="edgeStyle=orthogonalEdgeStyle;rounded=0;orthogonalLoop=1;jettySize=auto;html=1;" parent="1" source="247" target="259" edge="1"><mxGeometry relative="1" as="geometry"/></mxCell><mxCell id="247" value="transporta" style="rhombus;whiteSpace=wrap;html=1;fillColor=#fff2cc;strokeColor=#d6b656;" parent="1" vertex="1"><mxGeometry x="-930" y="-1090" width="120" height="80" as="geometry"/></mxCell><mxCell id="248" value="1" style="edgeStyle=orthogonalEdgeStyle;rounded=0;orthogonalLoop=1;jettySize=auto;html=1;entryX=0.5;entryY=0;entryDx=0;entryDy=0;" parent="1" source="253" target="247" edge="1"><mxGeometry relative="1" as="geometry"/></mxCell><mxCell id="249" style="edgeStyle=orthogonalEdgeStyle;rounded=0;orthogonalLoop=1;jettySize=auto;html=1;entryX=0;entryY=0.5;entryDx=0;entryDy=0;" parent="1" source="253" target="257" edge="1"><mxGeometry relative="1" as="geometry"/></mxCell><mxCell id="250" style="edgeStyle=orthogonalEdgeStyle;rounded=0;orthogonalLoop=1;jettySize=auto;html=1;" parent="1" source="253" target="254" edge="1"><mxGeometry relative="1" as="geometry"/></mxCell><mxCell id="251" style="edgeStyle=orthogonalEdgeStyle;rounded=0;orthogonalLoop=1;jettySize=auto;html=1;entryX=1;entryY=0.5;entryDx=0;entryDy=0;" parent="1" source="253" target="255" edge="1"><mxGeometry relative="1" as="geometry"/></mxCell><mxCell id="252" style="edgeStyle=orthogonalEdgeStyle;rounded=0;orthogonalLoop=1;jettySize=auto;html=1;entryX=0;entryY=0.5;entryDx=0;entryDy=0;" parent="1" source="253" target="256" edge="1"><mxGeometry relative="1" as="geometry"/></mxCell><mxCell id="253" value="empresa" style="rounded=0;whiteSpace=wrap;html=1;fillColor=#ffe6cc;strokeColor=#d79b00;" parent="1" vertex="1"><mxGeometry x="-930" y="-1230" width="120" height="60" as="geometry"/></mxCell><mxCell id="254" value="id_empresa" style="ellipse;whiteSpace=wrap;html=1;fillColor=#f8cecc;strokeColor=#b85450;" parent="1" vertex="1"><mxGeometry x="-1110" y="-1240" width="120" height="80" as="geometry"/></mxCell><mxCell id="255" value="nome" style="ellipse;whiteSpace=wrap;html=1;fillColor=#f8cecc;strokeColor=#b85450;" parent="1" vertex="1"><mxGeometry x="-1020" y="-1340" width="120" height="80" as="geometry"/></mxCell><mxCell id="256" value="morada" style="ellipse;whiteSpace=wrap;html=1;fillColor=#f8cecc;strokeColor=#b85450;" parent="1" vertex="1"><mxGeometry x="-840" y="-1340" width="120" height="80" as="geometry"/></mxCell><mxCell id="257" value="email" style="ellipse;whiteSpace=wrap;html=1;fillColor=#f8cecc;strokeColor=#b85450;" parent="1" vertex="1"><mxGeometry x="-760" y="-1240" width="120" height="80" as="geometry"/></mxCell><mxCell id="258" value="data" style="ellipse;whiteSpace=wrap;html=1;fillColor=#f8cecc;strokeColor=#b85450;" parent="1" vertex="1"><mxGeometry x="-760" y="-1090" width="120" height="80" as="geometry"/></mxCell><mxCell id="259" value="preco" style="ellipse;whiteSpace=wrap;html=1;fillColor=#f8cecc;strokeColor=#b85450;" parent="1" vertex="1"><mxGeometry x="-1100" y="-1090" width="120" height="80" as="geometry"/></mxCell><mxCell id="263" style="edgeStyle=orthogonalEdgeStyle;rounded=0;orthogonalLoop=1;jettySize=auto;html=1;entryX=0.5;entryY=1;entryDx=0;entryDy=0;" parent="1" source="260" target="262" edge="1"><mxGeometry relative="1" as="geometry"/></mxCell><mxCell id="260" value="pode" style="rhombus;whiteSpace=wrap;html=1;fillColor=#fff2cc;strokeColor=#d6b656;" parent="1" vertex="1"><mxGeometry x="-360" y="-1090" width="120" height="80" as="geometry"/></mxCell><mxCell id="267" style="edgeStyle=orthogonalEdgeStyle;rounded=0;orthogonalLoop=1;jettySize=auto;html=1;entryX=0.5;entryY=1;entryDx=0;entryDy=0;" parent="1" source="262" target="265" edge="1"><mxGeometry relative="1" as="geometry"/></mxCell><mxCell id="268" style="edgeStyle=orthogonalEdgeStyle;rounded=0;orthogonalLoop=1;jettySize=auto;html=1;entryX=0.5;entryY=1;entryDx=0;entryDy=0;" parent="1" source="262" target="266" edge="1"><mxGeometry relative="1" as="geometry"/></mxCell><mxCell id="269" style="edgeStyle=orthogonalEdgeStyle;rounded=0;orthogonalLoop=1;jettySize=auto;html=1;entryX=0.5;entryY=1;entryDx=0;entryDy=0;" parent="1" source="262" target="264" edge="1"><mxGeometry relative="1" as="geometry"/></mxCell><mxCell id="262" value="incidente" style="rounded=0;whiteSpace=wrap;html=1;fillColor=#ffe6cc;strokeColor=#d79b00;" parent="1" vertex="1"><mxGeometry x="-360" y="-1229" width="120" height="60" as="geometry"/></mxCell><mxCell id="264" value="valor" style="ellipse;whiteSpace=wrap;html=1;fillColor=#f8cecc;strokeColor=#b85450;" parent="1" vertex="1"><mxGeometry x="-510" y="-1300" width="120" height="80" as="geometry"/></mxCell><mxCell id="265" value="id_incidente" style="ellipse;whiteSpace=wrap;html=1;fillColor=#f8cecc;strokeColor=#b85450;" parent="1" vertex="1"><mxGeometry x="-360" y="-1370" width="120" height="80" as="geometry"/></mxCell><mxCell id="266" value="data" style="ellipse;whiteSpace=wrap;html=1;fillColor=#f8cecc;strokeColor=#b85450;" parent="1" vertex="1"><mxGeometry x="-210" y="-1300" width="120" height="80" as="geometry"/></mxCell><mxCell id="280" style="edgeStyle=orthogonalEdgeStyle;rounded=0;orthogonalLoop=1;jettySize=auto;html=1;" parent="1" source="270" target="273" edge="1"><mxGeometry relative="1" as="geometry"/></mxCell><mxCell id="281" style="edgeStyle=orthogonalEdgeStyle;rounded=0;orthogonalLoop=1;jettySize=auto;html=1;entryX=0.5;entryY=0;entryDx=0;entryDy=0;" parent="1" source="270" target="272" edge="1"><mxGeometry relative="1" as="geometry"/></mxCell><mxCell id="283" value="N" style="edgeStyle=orthogonalEdgeStyle;rounded=0;orthogonalLoop=1;jettySize=auto;html=1;entryX=0.5;entryY=0;entryDx=0;entryDy=0;" parent="1" source="270" target="275" edge="1"><mxGeometry relative="1" as="geometry"/></mxCell><mxCell id="270" value="contem" style="rhombus;whiteSpace=wrap;html=1;fillColor=#fff2cc;strokeColor=#d6b656;" parent="1" vertex="1"><mxGeometry x="1620" y="480" width="120" height="80" as="geometry"/></mxCell><mxCell id="272" value="unidade" style="ellipse;whiteSpace=wrap;html=1;fillColor=#f8cecc;strokeColor=#b85450;" parent="1" vertex="1"><mxGeometry x="1620" y="600" width="120" height="80" as="geometry"/></mxCell><mxCell id="273" value="quantidade" style="ellipse;whiteSpace=wrap;html=1;fillColor=#f8cecc;strokeColor=#b85450;" parent="1" vertex="1"><mxGeometry x="1620" y="360" width="120" height="80" as="geometry"/></mxCell><mxCell id="286" style="edgeStyle=orthogonalEdgeStyle;rounded=0;orthogonalLoop=1;jettySize=auto;html=1;entryX=0;entryY=0.5;entryDx=0;entryDy=0;" parent="1" source="275" target="278" edge="1"><mxGeometry relative="1" as="geometry"/></mxCell><mxCell id="287" style="edgeStyle=orthogonalEdgeStyle;rounded=0;orthogonalLoop=1;jettySize=auto;html=1;entryX=1;entryY=0.5;entryDx=0;entryDy=0;" parent="1" source="275" target="279" edge="1"><mxGeometry relative="1" as="geometry"/></mxCell><mxCell id="275" value="tipo_fator&lt;br&gt;" style="whiteSpace=wrap;html=1;fillColor=#ffe6cc;strokeColor=#d79b00;" parent="1" vertex="1"><mxGeometry x="1960" y="600" width="120" height="60" as="geometry"/></mxCell><mxCell id="278" value="designacao" style="ellipse;whiteSpace=wrap;html=1;fillColor=#f8cecc;strokeColor=#b85450;" parent="1" vertex="1"><mxGeometry x="2080" y="720" width="120" height="80" as="geometry"/></mxCell><mxCell id="279" value="id_elemento&lt;br&gt;" style="ellipse;whiteSpace=wrap;html=1;fillColor=#f8cecc;strokeColor=#b85450;" parent="1" vertex="1"><mxGeometry x="1840" y="720" width="120" height="80" as="geometry"/></mxCell><mxCell id="291" style="edgeStyle=orthogonalEdgeStyle;rounded=0;orthogonalLoop=1;jettySize=auto;html=1;entryX=0.5;entryY=1;entryDx=0;entryDy=0;" parent="1" source="288" target="290" edge="1"><mxGeometry relative="1" as="geometry"/></mxCell><mxCell id="288" value="gera" style="rhombus;whiteSpace=wrap;html=1;fillColor=#fff2cc;strokeColor=#d6b656;" parent="1" vertex="1"><mxGeometry x="-1750" y="-330" width="120" height="80" as="geometry"/></mxCell><mxCell id="298" style="edgeStyle=orthogonalEdgeStyle;rounded=0;orthogonalLoop=1;jettySize=auto;html=1;" parent="1" source="290" target="297" edge="1"><mxGeometry relative="1" as="geometry"/></mxCell><mxCell id="300" style="edgeStyle=orthogonalEdgeStyle;rounded=0;orthogonalLoop=1;jettySize=auto;html=1;entryX=0.5;entryY=1;entryDx=0;entryDy=0;" parent="1" source="290" target="296" edge="1"><mxGeometry relative="1" as="geometry"/></mxCell><mxCell id="301" style="edgeStyle=orthogonalEdgeStyle;rounded=0;orthogonalLoop=1;jettySize=auto;html=1;entryX=1;entryY=0.5;entryDx=0;entryDy=0;" parent="1" source="290" target="292" edge="1"><mxGeometry relative="1" as="geometry"/></mxCell><mxCell id="302" style="edgeStyle=orthogonalEdgeStyle;rounded=0;orthogonalLoop=1;jettySize=auto;html=1;entryX=0.5;entryY=1;entryDx=0;entryDy=0;" parent="1" source="290" target="295" edge="1"><mxGeometry relative="1" as="geometry"/></mxCell><mxCell id="303" style="edgeStyle=orthogonalEdgeStyle;rounded=0;orthogonalLoop=1;jettySize=auto;html=1;entryX=0.5;entryY=1;entryDx=0;entryDy=0;" parent="1" source="290" target="294" edge="1"><mxGeometry relative="1" as="geometry"/></mxCell><mxCell id="304" style="edgeStyle=orthogonalEdgeStyle;rounded=0;orthogonalLoop=1;jettySize=auto;html=1;entryX=1;entryY=0.5;entryDx=0;entryDy=0;" parent="1" source="290" target="293" edge="1"><mxGeometry relative="1" as="geometry"><Array as="points"><mxPoint x="-1680" y="-470"/><mxPoint x="-1680" y="-530"/></Array></mxGeometry></mxCell><mxCell id="290" value="produto_agricola" style="rounded=0;whiteSpace=wrap;html=1;fillColor=#ffe6cc;strokeColor=#d79b00;" parent="1" vertex="1"><mxGeometry x="-1660" y="-500" width="120" height="60" as="geometry"/></mxCell><mxCell id="292" value="nome" style="ellipse;whiteSpace=wrap;html=1;fillColor=#f8cecc;strokeColor=#b85450;" parent="1" vertex="1"><mxGeometry x="-1810" y="-480" width="120" height="80" as="geometry"/></mxCell><mxCell id="293" value="quantidade" style="ellipse;whiteSpace=wrap;html=1;fillColor=#f8cecc;strokeColor=#b85450;" parent="1" vertex="1"><mxGeometry x="-1870" y="-570" width="120" height="80" as="geometry"/></mxCell><mxCell id="294" value="id_produto_agricola" style="ellipse;whiteSpace=wrap;html=1;fillColor=#f8cecc;strokeColor=#b85450;" parent="1" vertex="1"><mxGeometry x="-1750" y="-650" width="120" height="80" as="geometry"/></mxCell><mxCell id="295" value="preco" style="ellipse;whiteSpace=wrap;html=1;fillColor=#f8cecc;strokeColor=#b85450;" parent="1" vertex="1"><mxGeometry x="-1620" y="-650" width="120" height="80" as="geometry"/></mxCell><mxCell id="296" value="unidade" style="ellipse;whiteSpace=wrap;html=1;fillColor=#f8cecc;strokeColor=#b85450;" parent="1" vertex="1"><mxGeometry x="-1520" y="-570" width="120" height="80" as="geometry"/></mxCell><mxCell id="299" style="edgeStyle=orthogonalEdgeStyle;rounded=0;orthogonalLoop=1;jettySize=auto;html=1;entryX=0.5;entryY=1;entryDx=0;entryDy=0;" parent="1" source="297" target="115" edge="1"><mxGeometry relative="1" as="geometry"/></mxCell><mxCell id="297" value="contem" style="rhombus;whiteSpace=wrap;html=1;fillColor=#fff2cc;strokeColor=#d6b656;" parent="1" vertex="1"><mxGeometry x="-1030" y="-584" width="120" height="80" as="geometry"/></mxCell><mxCell id="314" style="edgeStyle=orthogonalEdgeStyle;rounded=0;orthogonalLoop=1;jettySize=auto;html=1;" parent="1" source="305" target="307" edge="1"><mxGeometry relative="1" as="geometry"/></mxCell><mxCell id="315" style="edgeStyle=orthogonalEdgeStyle;rounded=0;orthogonalLoop=1;jettySize=auto;html=1;" parent="1" source="305" target="308" edge="1"><mxGeometry relative="1" as="geometry"/></mxCell><mxCell id="317" style="edgeStyle=orthogonalEdgeStyle;rounded=0;orthogonalLoop=1;jettySize=auto;html=1;entryX=0.5;entryY=0;entryDx=0;entryDy=0;" parent="1" source="305" target="311" edge="1"><mxGeometry relative="1" as="geometry"/></mxCell><mxCell id="318" style="edgeStyle=orthogonalEdgeStyle;rounded=0;orthogonalLoop=1;jettySize=auto;html=1;entryX=0;entryY=0.5;entryDx=0;entryDy=0;" parent="1" source="305" target="309" edge="1"><mxGeometry relative="1" as="geometry"/></mxCell><mxCell id="319" style="edgeStyle=orthogonalEdgeStyle;rounded=0;orthogonalLoop=1;jettySize=auto;html=1;entryX=0;entryY=0.5;entryDx=0;entryDy=0;" parent="1" source="305" target="310" edge="1"><mxGeometry relative="1" as="geometry"/></mxCell><mxCell id="320" style="edgeStyle=orthogonalEdgeStyle;rounded=0;orthogonalLoop=1;jettySize=auto;html=1;entryX=1;entryY=0;entryDx=0;entryDy=0;" parent="1" source="305" target="312" edge="1"><mxGeometry relative="1" as="geometry"/></mxCell><mxCell id="321" value="N" style="edgeStyle=orthogonalEdgeStyle;rounded=0;orthogonalLoop=1;jettySize=auto;html=1;entryX=0;entryY=0.5;entryDx=0;entryDy=0;exitX=0.5;exitY=1;exitDx=0;exitDy=0;" parent="1" source="305" target="41" edge="1"><mxGeometry relative="1" as="geometry"/></mxCell><mxCell id="338" value="N" style="edgeStyle=orthogonalEdgeStyle;rounded=0;orthogonalLoop=1;jettySize=auto;html=1;entryX=1;entryY=0.5;entryDx=0;entryDy=0;exitX=0.5;exitY=1;exitDx=0;exitDy=0;" parent="1" source="305" target="335" edge="1"><mxGeometry relative="1" as="geometry"/></mxCell><mxCell id="305" value="operacao" style="whiteSpace=wrap;html=1;fillColor=#ffe6cc;strokeColor=#d79b00;" parent="1" vertex="1"><mxGeometry x="180" y="365" width="120" height="60" as="geometry"/></mxCell><mxCell id="307" value="id_operacao" style="ellipse;whiteSpace=wrap;html=1;fillColor=#f8cecc;strokeColor=#b85450;" parent="1" vertex="1"><mxGeometry x="100" y="240" width="120" height="80" as="geometry"/></mxCell><mxCell id="308" value="data_operacao" style="ellipse;whiteSpace=wrap;html=1;fillColor=#f8cecc;strokeColor=#b85450;" parent="1" vertex="1"><mxGeometry x="-30" y="320" width="120" height="80" as="geometry"/></mxCell><mxCell id="309" value="unidade" style="ellipse;whiteSpace=wrap;html=1;fillColor=#f8cecc;strokeColor=#b85450;" parent="1" vertex="1"><mxGeometry x="360" y="390" width="120" height="80" as="geometry"/></mxCell><mxCell id="310" value="quantidade" style="ellipse;whiteSpace=wrap;html=1;fillColor=#f8cecc;strokeColor=#b85450;" parent="1" vertex="1"><mxGeometry x="280" y="280" width="120" height="80" as="geometry"/></mxCell><mxCell id="311" value="estado_operacao" style="ellipse;whiteSpace=wrap;html=1;fillColor=#f8cecc;strokeColor=#b85450;" parent="1" vertex="1"><mxGeometry x="250" y="460" width="120" height="80" as="geometry"/></mxCell><mxCell id="312" value="tipo" style="ellipse;whiteSpace=wrap;html=1;fillColor=#f8cecc;strokeColor=#b85450;" parent="1" vertex="1"><mxGeometry x="40" y="450" width="120" height="80" as="geometry"/></mxCell><mxCell id="327" style="edgeStyle=orthogonalEdgeStyle;rounded=0;orthogonalLoop=1;jettySize=auto;html=1;entryX=0.5;entryY=1;entryDx=0;entryDy=0;" parent="1" source="322" target="325" edge="1"><mxGeometry relative="1" as="geometry"/></mxCell><mxCell id="328" style="edgeStyle=orthogonalEdgeStyle;rounded=0;orthogonalLoop=1;jettySize=auto;html=1;entryX=1;entryY=0.5;entryDx=0;entryDy=0;" parent="1" source="322" target="323" edge="1"><mxGeometry relative="1" as="geometry"/></mxCell><mxCell id="329" style="edgeStyle=orthogonalEdgeStyle;rounded=0;orthogonalLoop=1;jettySize=auto;html=1;" parent="1" source="322" target="324" edge="1"><mxGeometry relative="1" as="geometry"/></mxCell><mxCell id="333" value="N" style="edgeStyle=orthogonalEdgeStyle;rounded=0;orthogonalLoop=1;jettySize=auto;html=1;entryX=0;entryY=0.5;entryDx=0;entryDy=0;" parent="1" source="322" target="332" edge="1"><mxGeometry relative="1" as="geometry"/></mxCell><mxCell id="322" value="restricao" style="whiteSpace=wrap;html=1;fillColor=#ffe6cc;strokeColor=#d79b00;" parent="1" vertex="1"><mxGeometry x="120" y="130" width="120" height="60" as="geometry"/></mxCell><mxCell id="323" value="data1" style="ellipse;whiteSpace=wrap;html=1;fillColor=#f8cecc;strokeColor=#b85450;" parent="1" vertex="1"><mxGeometry x="-80" y="50" width="120" height="80" as="geometry"/></mxCell><mxCell id="324" value="data2" style="ellipse;whiteSpace=wrap;html=1;fillColor=#f8cecc;strokeColor=#b85450;" parent="1" vertex="1"><mxGeometry x="-80" y="140" width="120" height="80" as="geometry"/></mxCell><mxCell id="325" value="id_restricao" style="ellipse;whiteSpace=wrap;html=1;fillColor=#f8cecc;strokeColor=#b85450;" parent="1" vertex="1"><mxGeometry x="70" y="10" width="120" height="80" as="geometry"/></mxCell><mxCell id="340" style="edgeStyle=orthogonalEdgeStyle;rounded=0;orthogonalLoop=1;jettySize=auto;html=1;" parent="1" source="330" target="339" edge="1"><mxGeometry relative="1" as="geometry"/></mxCell><mxCell id="341" value="N" style="edgeStyle=orthogonalEdgeStyle;rounded=0;orthogonalLoop=1;jettySize=auto;html=1;entryX=0;entryY=0.5;entryDx=0;entryDy=0;" parent="1" source="330" target="48" edge="1"><mxGeometry relative="1" as="geometry"><Array as="points"><mxPoint x="760" y="650"/><mxPoint x="760" y="520"/></Array></mxGeometry></mxCell><mxCell id="330" value="operacao_fator" style="whiteSpace=wrap;html=1;fillColor=#ffe6cc;strokeColor=#d79b00;" parent="1" vertex="1"><mxGeometry x="580" y="620" width="120" height="60" as="geometry"/></mxCell><mxCell id="334" value="N" style="edgeStyle=orthogonalEdgeStyle;rounded=0;orthogonalLoop=1;jettySize=auto;html=1;entryX=0;entryY=0.5;entryDx=0;entryDy=0;" parent="1" source="332" target="48" edge="1"><mxGeometry relative="1" as="geometry"/></mxCell><mxCell id="332" value="sobre" style="rhombus;whiteSpace=wrap;html=1;fillColor=#fff2cc;strokeColor=#d6b656;" parent="1" vertex="1"><mxGeometry x="530" y="-10" width="120" height="80" as="geometry"/></mxCell><mxCell id="343" value="N" style="edgeStyle=orthogonalEdgeStyle;rounded=0;orthogonalLoop=1;jettySize=auto;html=1;" parent="1" source="335" target="342" edge="1"><mxGeometry relative="1" as="geometry"/></mxCell><mxCell id="335" value="pode ser" style="rhombus;whiteSpace=wrap;html=1;fillColor=#fff2cc;strokeColor=#d6b656;" parent="1" vertex="1"><mxGeometry x="-110" y="580" width="120" height="80" as="geometry"/></mxCell><mxCell id="339" value="forma_aplicacao" style="ellipse;whiteSpace=wrap;html=1;fillColor=#f8cecc;strokeColor=#b85450;" parent="1" vertex="1"><mxGeometry x="600" y="710" width="120" height="80" as="geometry"/></mxCell><mxCell id="344" value="N" style="edgeStyle=orthogonalEdgeStyle;rounded=0;orthogonalLoop=1;jettySize=auto;html=1;" parent="1" source="342" target="57" edge="1"><mxGeometry relative="1" as="geometry"/></mxCell><mxCell id="346" style="edgeStyle=orthogonalEdgeStyle;rounded=0;orthogonalLoop=1;jettySize=auto;html=1;" parent="1" source="342" target="345" edge="1"><mxGeometry relative="1" as="geometry"/></mxCell><mxCell id="342" value="operacao_rega" style="whiteSpace=wrap;html=1;fillColor=#ffe6cc;strokeColor=#d79b00;" parent="1" vertex="1"><mxGeometry x="-410" y="610" width="120" height="60" as="geometry"/></mxCell><mxCell id="345" value="forma_aplicacao" style="ellipse;whiteSpace=wrap;html=1;fillColor=#f8cecc;strokeColor=#b85450;" parent="1" vertex="1"><mxGeometry x="-410" y="710" width="120" height="80" as="geometry"/></mxCell></root></mxGraphModel></diagram></mxfile>